<svg xmlns="http://www.w3.org/2000/svg" width="21.348" height="21.348" viewBox="0 0 21.348 21.348">
  <path id="Globe" d="M3,13.174H8.652M3,13.174A10.174,10.174,0,0,0,13.174,23.348M3,13.174A10.174,10.174,0,0,1,13.174,3M8.652,13.174H17.7m-9.043,0c0,5.619,2.024,10.174,4.522,10.174M8.652,13.174C8.652,7.555,10.677,3,13.174,3M17.7,13.174h5.652m-5.652,0C17.7,7.555,15.671,3,13.174,3M17.7,13.174c0,5.619-2.024,10.174-4.522,10.174M23.348,13.174A10.174,10.174,0,0,0,13.174,3M23.348,13.174A10.174,10.174,0,0,1,13.174,23.348" transform="translate(-2.5 -2.5)" fill="none" stroke="#fcd625" stroke-linecap="round" stroke-linejoin="round" stroke-width="1"/>
</svg>
