<svg xmlns="http://www.w3.org/2000/svg" width="38" height="38" viewBox="0 0 38 38">
  <g id="instagram" transform="translate(-0.25)">
    <rect id="Rectangle_157" data-name="Rectangle 157" width="38" height="38" rx="5" transform="translate(0.25)" fill="#fcd625"/>
    <g id="Group_39" data-name="Group 39" transform="translate(6.761 6.389)">
      <path id="Path_36" data-name="Path 36" d="M180.7,175a5.7,5.7,0,1,0,5.7,5.7A5.707,5.707,0,0,0,180.7,175Zm0,9.128a3.423,3.423,0,1,1,3.423-3.423A3.428,3.428,0,0,1,180.7,184.128Z" transform="translate(-168.078 -168.078)" fill="#1c1c1c"/>
      <ellipse id="Ellipse_9" data-name="Ellipse 9" cx="1.5" cy="0.5" rx="1.5" ry="0.5" transform="translate(17.489 5.61)" fill="#1c1c1c"/>
      <path id="Path_37" data-name="Path 37" d="M102.408,84H90.846A6.856,6.856,0,0,0,84,90.846v11.562a6.856,6.856,0,0,0,6.846,6.846h11.562a6.856,6.856,0,0,0,6.846-6.846V90.846A6.856,6.856,0,0,0,102.408,84Zm4.564,18.408a4.567,4.567,0,0,1-4.564,4.564H90.846a4.567,4.567,0,0,1-4.564-4.564V90.846a4.567,4.567,0,0,1,4.564-4.564h11.562a4.567,4.567,0,0,1,4.564,4.564Z" transform="translate(-84 -84)" fill="#1c1c1c"/>
      <path id="Path_38" data-name="Path 38" d="M180.7,175a5.7,5.7,0,1,0,5.7,5.7A5.707,5.707,0,0,0,180.7,175Zm0,9.128a3.423,3.423,0,1,1,3.423-3.423A3.428,3.428,0,0,1,180.7,184.128Z" transform="translate(-168.078 -168.078)" fill="#1c1c1c"/>
      <ellipse id="Ellipse_10" data-name="Ellipse 10" cx="1.5" cy="0.5" rx="1.5" ry="0.5" transform="translate(17.489 5.61)" fill="#1c1c1c"/>
      <path id="Path_39" data-name="Path 39" d="M180.7,175a5.7,5.7,0,1,0,5.7,5.7A5.707,5.707,0,0,0,180.7,175Zm0,9.128a3.423,3.423,0,1,1,3.423-3.423A3.428,3.428,0,0,1,180.7,184.128Z" transform="translate(-168.078 -168.078)" fill="#1c1c1c"/>
      <circle id="Ellipse_11" data-name="Ellipse 11" cx="1.5" cy="1.5" r="1.5" transform="translate(17.489 4.61)" fill="#1c1c1c"/>
    </g>
  </g>
</svg>
