<svg xmlns="http://www.w3.org/2000/svg" width="21.348" height="16.826" viewBox="0 0 21.348 16.826">
  <path id="Mail" d="M4.13,6.13l6.9,5.214,0,0a5.186,5.186,0,0,0,1.57.952,2.262,2.262,0,0,0,1.133,0,5.2,5.2,0,0,0,1.573-.954s4.428-3.4,6.9-5.214M3,17.209V8.618a5.619,5.619,0,0,1,.246-2.383,2.26,2.26,0,0,1,.988-.988A5.619,5.619,0,0,1,6.618,5H19.731a5.612,5.612,0,0,1,2.382.246,2.262,2.262,0,0,1,.989.988,5.609,5.609,0,0,1,.246,2.38v8.6a5.6,5.6,0,0,1-.246,2.379,2.263,2.263,0,0,1-.989.988,5.6,5.6,0,0,1-2.379.246H6.614a5.609,5.609,0,0,1-2.38-.246,2.261,2.261,0,0,1-.988-.988A5.615,5.615,0,0,1,3,17.209Z" transform="translate(-2.5 -4.5)" fill="none" stroke="#fcd625" stroke-linecap="round" stroke-linejoin="round" stroke-width="1"/>
</svg>
