<svg xmlns="http://www.w3.org/2000/svg" width="17.052" height="21.354" viewBox="0 0 17.052 21.354">
  <g id="Map_Pin" transform="translate(-4.5 -2.5)">
    <path id="Path_32" data-name="Path 32" d="M5,10.938C5,16.5,9.867,21.1,12.021,22.865a1.933,1.933,0,0,0,.694.445,1.3,1.3,0,0,0,.622,0,1.929,1.929,0,0,0,.695-.445c2.154-1.764,7.02-6.364,7.02-11.927A7.894,7.894,0,0,0,18.7,5.325a8.089,8.089,0,0,0-11.351,0A7.893,7.893,0,0,0,5,10.938Z" fill="none" stroke="#fcd625" stroke-linecap="round" stroke-linejoin="round" stroke-width="1"/>
    <path id="Path_33" data-name="Path 33" d="M10,9.293A2.293,2.293,0,1,0,12.293,7,2.293,2.293,0,0,0,10,9.293Z" transform="translate(0.733 0.586)" fill="none" stroke="#fcd625" stroke-linecap="round" stroke-linejoin="round" stroke-width="1"/>
  </g>
</svg>
