<svg xmlns="http://www.w3.org/2000/svg" width="21.348" height="21.348" viewBox="0 0 21.348 21.348">
  <path id="Phone" d="M10.351,4.421A2.261,2.261,0,0,0,8.251,3H5.142A2.142,2.142,0,0,0,3,5.142,18.206,18.206,0,0,0,21.206,23.348a2.142,2.142,0,0,0,2.142-2.142V18.1A2.261,2.261,0,0,0,21.927,16l-2.98-1.192a2.261,2.261,0,0,0-2.287.362l-.769.642a2.262,2.262,0,0,1-3.047-.138L10.678,13.5a2.261,2.261,0,0,1-.139-3.046l.641-.769A2.261,2.261,0,0,0,11.543,7.4Z" transform="translate(-2.5 -2.5)" fill="none" stroke="#fcd625" stroke-linecap="round" stroke-linejoin="round" stroke-width="1"/>
</svg>
