<svg xmlns="http://www.w3.org/2000/svg" width="38" height="38" viewBox="0 0 38 38">
  <g id="youtube" transform="translate(-0.179)">
    <rect id="Rectangle_159" data-name="Rectangle 159" width="38" height="38" rx="5" transform="translate(0.179)" fill="#fcd625"/>
    <path id="Path_42" data-name="Path 42" d="M117.732,143.767c0,2.008-.183,4.047-.183,4.047a5.52,5.52,0,0,1-.913,2.464,3.308,3.308,0,0,1-2.373,1.065c-3.347.243-8.367.274-8.367.274s-6.237-.091-8.154-.274a3.887,3.887,0,0,1-2.647-1.065,5.149,5.149,0,0,1-.913-2.464S94,145.775,94,143.767V141.88c0-2.008.183-4.047.183-4.047a5.52,5.52,0,0,1,.913-2.464,3.377,3.377,0,0,1,2.373-1.1c3.377-.243,8.4-.274,8.4-.274s5.02.03,8.367.274a3.5,3.5,0,0,1,2.4,1.065,5.224,5.224,0,0,1,.913,2.495s.183,2.039.183,4.047Z" transform="translate(-86.927 -123.807)" fill="#1c1c1c"/>
    <path id="Path_43" data-name="Path 43" d="M217.6,200.4v7l6.45-3.469Z" transform="translate(-201.126 -185.157)" fill="#fcd625"/>
  </g>
</svg>
